# xmcd
# 
# Track frame offsets:
#   150
#   16103
#   32860
#   48333
#   58924
#   74083
#   88255
#   103688
#   117685
#   132459
#   150122
#   164084
#   177472
#   194355
#   210130
#   228307
# 
# Disc length: 3240 seconds
# 
# Revision: 6
# Processed by: cddbd v1.5.2PL0 Copyright (c) Steve Scherf et al.
# Submitted via: Synapstar 1.0 
# 
DISCID=e50ca610
DTITLE=Various Artist - 1997-05 Country Radio
DYEAR=1997
DGENRE=Country
TTITLE0=Neal McCoy - The Shake
TTITLE1=Tim McGraw - It's Your Love
TTITLE2=Sherrie Austin - Lucky In Love
TTITLE3=Cledus T. Judd - Skoal: The Grundy County Spitting Incident
TTITLE4=David Kersh - Day In, Day Out
TTITLE5=Rich McCready - That Just About Covers It
TTITLE6=Blake And Brian - Another Perfect Day
TTITLE7=Thrasher Shiver - Between The Stones And Jones
TTITLE8=Sawyer Brown - Six Days On The Road
TTITLE9=Lila McCann - Down Came A Blackbird
TTITLE10=Baile and The Boys - The God's Honest Truth
TTITLE11=Rodney Atkins - In A Heartbeat
TTITLE12=David Morgan - Cheap Imitation
TTITLE13=Jeffrey Steele - My Greatest Love
TTITLE14=Atlanta Rhythm Section - She Knows All My Tricks
TTITLE15=Southern Sons - I Got The Girl
EXTD=MediaType: Audio CD Producer: Unknown
EXTT0=
EXTT1=
EXTT2=
EXTT3=
EXTT4=
EXTT5=
EXTT6=
EXTT7=
EXTT8=
EXTT9=
EXTT10=
EXTT11=
EXTT12=
EXTT13=
EXTT14=
EXTT15=
PLAYORDER=
